<?xml version="1.0" encoding="UTF-8" standalone="no"?>
<svg
   version="1.1"
   width="998.10156"
   height="411.03958"
   viewBox="0 0 998.1016 411.03958"
   id="svg33"
   sodipodi:docname="logo-white-aworks.svg"
   inkscape:version="1.3 (0e150ed6c4, 2023-07-21)"
   xmlns:inkscape="http://www.inkscape.org/namespaces/inkscape"
   xmlns:sodipodi="http://sodipodi.sourceforge.net/DTD/sodipodi-0.dtd"
   xmlns="http://www.w3.org/2000/svg"
   xmlns:svg="http://www.w3.org/2000/svg">
  <defs
     id="defs33" />
  <sodipodi:namedview
     id="namedview33"
     pagecolor="#ffffff"
     bordercolor="#000000"
     borderopacity="0.25"
     inkscape:showpageshadow="2"
     inkscape:pageopacity="0.0"
     inkscape:pagecheckerboard="0"
     inkscape:deskcolor="#d1d1d1"
     showgrid="false"
     inkscape:zoom="0.518"
     inkscape:cx="499.03475"
     inkscape:cy="205.59846"
     inkscape:window-width="1920"
     inkscape:window-height="991"
     inkscape:window-x="-9"
     inkscape:window-y="-9"
     inkscape:window-maximized="1"
     inkscape:current-layer="svg33" />
  <g
     transform="matrix(0.66666667,0,0,0.66666667,-0.94920246,-0.1468785)"
     id="g32">
    <svg
       viewBox="0 0 396 163"
       data-background-color="#c8c8c8"
       preserveAspectRatio="xMidYMid"
       height="617"
       width="1500"
       version="1.1"
       id="svg32">
      <g
         id="tight-bounds"
         transform="translate(0.24,0.05820388)">
        <svg
           viewBox="0 0 395.52 162.88359"
           height="162.88359"
           width="395.51999"
           version="1.1"
           id="svg31">
          <g
             id="g30">
            <svg
               viewBox="0 0 648.78557 267.18377"
               height="162.88359"
               width="395.51999"
               version="1.1"
               id="svg30">
              <g
                 transform="translate(294.33174,9.9918845)"
                 id="g5">
                <svg
                   viewBox="0 0 354.45383 247.2"
                   height="247.2"
                   width="354.45383"
                   version="1.1"
                   id="svg5">
                  <g
                     id="textblocktransform">
                    <svg
                       viewBox="0 0 354.45383 247.2"
                       height="247.2"
                       width="354.45383"
                       id="textblock"
                       version="1.1">
                      <g
                         id="g4">
                        <svg
                           viewBox="0 0 354.45383 247.2"
                           height="247.2"
                           width="354.45383"
                           version="1.1"
                           id="svg4">
                          <g
                             id="g3">
                            <svg
                               width="354.45383"
                               viewBox="19.4 -37.5 123.6 81.55"
                               height="247.2"
                               data-palette-color="#486c8b"
                               version="1.1"
                               id="svg3">
                              <svg
                                 version="1.1"
                                 id="svg1"
                                 width="100%"
                                 height="100%" />
                              <svg
                                 version="1.1"
                                 id="svg2"
                                 width="100%"
                                 height="100%" />
                              <g
                                 class="wordmark-text-0"
                                 data-fill-palette-color="primary"
                                 id="text-0">
                                <path
                                   transform="translate(17.7)"
                                   d="M 13.15,0 C 12.883,0 12.66,-0.083 12.48,-0.25 12.293,-0.417 12.2,-0.617 12.2,-0.85 v 0 -6.55 C 12.2,-7.8 11.35,-8.167 9.65,-8.5 7.95,-8.833 6.55,-9 5.45,-9 v 0 c -0.067,0 -0.173,0.25 -0.32,0.75 -0.153,0.5 -0.263,0.867 -0.33,1.1 v 0 C 4.367,-5.417 3.933,-3.567 3.5,-1.6 v 0 l -0.25,1.1 c -0.067,0.267 -0.233,0.4 -0.5,0.4 v 0 C 2.483,-0.1 2.24,-0.183 2.02,-0.35 1.807,-0.517 1.7,-0.717 1.7,-0.95 v 0 l 0.05,-0.1 V -1.1 L 2.3,-3.6 c 0.4,-1.567 0.75,-3.1 1.05,-4.6 v 0 C 3.683,-9.9 3.933,-11 4.1,-11.5 v 0 c 0.267,-1.1 0.8,-3.85 1.6,-8.25 v 0 L 6,-21.4 c 0.867,-5.133 1.467,-8.367 1.8,-9.7 v 0 c 0.167,-0.8 0.467,-1.983 0.9,-3.55 v 0 c 0.167,-0.667 0.4,-1.333 0.7,-2 v 0 c 0.3,-0.567 0.55,-0.85 0.75,-0.85 v 0 c 0.533,0 0.917,0.167 1.15,0.5 v 0 c 0.167,0.3 0.427,1.95 0.78,4.95 0.347,3 0.653,6.033 0.92,9.1 v 0 l 0.65,8.3 c 0,1.433 0.1,3.6 0.3,6.5 v 0 c 0.2,2.933 0.3,5.117 0.3,6.55 v 0 0.2 c 0,0.367 -0.05,0.7 -0.15,1 v 0 C 13.967,-0.133 13.65,0 13.15,0 Z m -2,-9.65 c 0.667,0 1,-0.167 1,-0.5 v 0 c 0,-2.067 -0.117,-4.893 -0.35,-8.48 -0.233,-3.58 -0.483,-6.737 -0.75,-9.47 v 0 c -0.067,-1.167 -0.2,-2.45 -0.4,-3.85 v 0 l -0.2,-1.95 c 0,0.033 -0.033,-0.15 -0.1,-0.55 v 0 l -0.1,-0.6 c -0.267,0.733 -0.527,1.75 -0.78,3.05 -0.247,1.3 -0.503,2.833 -0.77,4.6 v 0 c -0.8,4.967 -1.483,8.7 -2.05,11.2 v 0 l -0.45,1.7 c -0.5,1.667 -0.75,2.933 -0.75,3.8 v 0 0.3 c 1.467,0.467 3.15,0.7 5.05,0.7 v 0 h 0.3 c 0.1,0.033 0.217,0.05 0.35,0.05 z M 34,0.2 C 33.733,0.2 33.543,0.1 33.43,-0.1 33.31,-0.3 33.2,-0.6 33.1,-1 v 0 C 33.067,-1.267 33,-1.5 32.9,-1.7 v 0 l 0.05,-0.15 c -0.267,-1.567 -0.833,-3.483 -1.7,-5.75 v 0 l -0.9,-2.6 c -0.067,-0.067 -0.383,-0.917 -0.95,-2.55 v 0 L 29,-13.95 C 26,-23.217 24.117,-28.233 23.35,-29 v 0 c -0.267,0.9 -0.4,2.067 -0.4,3.5 v 0 c 0,0.767 0.017,1.433 0.05,2 v 0 l 0.05,1.95 -0.05,1.2 c -0.033,0.367 -0.05,0.767 -0.05,1.2 v 0 c 0,0.733 0.033,1.367 0.1,1.9 v 0 c 0.067,1.067 0.1,1.6 0.1,1.6 v 0 H 23 c 0,5.567 0.117,8.633 0.35,9.2 v 0 4.5 c 0.133,0.267 0.2,0.617 0.2,1.05 v 0 c 0,0.267 -0.09,0.5 -0.27,0.7 C 23.093,0 22.867,0.1 22.6,0.1 v 0 c -0.7,0 -1.05,-0.9 -1.05,-2.7 v 0 l 0.1,-1.6 c 0.067,-0.5 0.1,-1.05 0.1,-1.65 v 0 c 0,-1.6 -0.05,-4 -0.15,-7.2 v 0 c -0.1,-3.2 -0.15,-5.6 -0.15,-7.2 v 0 c 0,-0.967 0.05,-2.45 0.15,-4.45 v 0 c 0.1,-1.967 0.15,-3.433 0.15,-4.4 v 0 -0.65 c 0,-1.633 0.3,-2.7 0.9,-3.2 v 0 l 0.15,0.15 0.5,-0.1 c 0.133,0.033 0.283,0.133 0.45,0.3 v 0 c 0.133,0.133 0.2,0.283 0.2,0.45 v 0 l 0.1,0.3 c 0,0.067 0.01,0.123 0.03,0.17 0.013,0.053 0.02,0.08 0.02,0.08 v 0 c 0.533,2.367 1.733,5.683 3.6,9.95 v 0 c 1.9,4.5 3.083,7.483 3.55,8.95 v 0 c 0.333,1.167 0.6,2.2 0.8,3.1 v 0 c 0.633,2.833 1.383,5.017 2.25,6.55 v 0 l 0.1,-0.15 c 0.767,-7.4 1.15,-16.483 1.15,-27.25 v 0 l -0.05,-0.6 c -0.033,-0.167 -0.05,-0.383 -0.05,-0.65 v 0 c 0,-0.7 0.233,-1.05 0.7,-1.05 v 0 c 0.3,0 0.56,0.15 0.78,0.45 0.213,0.3 0.32,0.633 0.32,1 v 0 3.35 l -0.25,0.4 c 0,3.167 -0.183,8.367 -0.55,15.6 -0.367,7.233 -0.717,11.167 -1.05,11.8 v 0 l -0.85,0.2 V 0.1 L 34.5,0.05 Z m 15.45,0.75 c -3.9,0 -5.85,-6.133 -5.85,-18.4 v 0 -1.75 c 0,-9.3 1.2,-13.95 3.6,-13.95 v 0 c 0.167,0 0.4,0.05 0.7,0.15 v 0 c 1.067,0.367 2.117,0.6 3.15,0.7 v 0 c 0.633,0.133 1.267,0.783 1.9,1.95 v 0 c 0.7,1.2 1.227,2.783 1.58,4.75 0.347,1.967 0.52,3.983 0.52,6.05 v 0 l -0.1,0.25 c 0,1.1 0.017,2.083 0.05,2.95 v 0 l 0.05,3 c 0,1.7 -0.067,3.233 -0.2,4.6 v 0 c -0.2,2.067 -0.533,3.85 -1,5.35 v 0 c -0.3,0.9 -0.64,1.65 -1.02,2.25 -0.387,0.6 -0.863,1.1 -1.43,1.5 v 0 c -0.533,0.4 -1.183,0.6 -1.95,0.6 z m -0.2,-1.45 c 1.3,0 2.267,-0.917 2.9,-2.75 v 0 c 0.633,-1.867 1.017,-3.767 1.15,-5.7 v 0 c 0.133,-2 0.2,-3.6 0.2,-4.8 v 0 c 0,-1.333 -0.1,-3.3 -0.3,-5.9 v 0 c -0.167,-2.9 -0.25,-4.867 -0.25,-5.9 v 0 l -0.2,-0.4 0.1,-0.25 c 0,-1.467 -0.407,-2.733 -1.22,-3.8 -0.82,-1.067 -1.813,-1.6 -2.98,-1.6 v 0 c -1.533,0 -2.45,0.733 -2.75,2.2 v 0 c -0.067,0.5 -0.133,1.217 -0.2,2.15 v 0 c 0,2.467 -0.1,4.15 -0.3,5.05 v 0 c 0,0.5 -0.05,1.283 -0.15,2.35 v 0 l -0.1,2.35 c 0,0.733 0.017,1.383 0.05,1.95 v 0 l 0.05,2 c 0,1.567 0.133,3.367 0.4,5.4 v 0 c 0.2,1.5 0.433,2.767 0.7,3.8 0.267,1.033 0.65,1.917 1.15,2.65 v 0 c 0.5,0.8 1.083,1.2 1.75,1.2 z M 81.3,2.6 c -0.667,0 -1,-1.067 -1,-3.2 v 0 -3.3 c 0,-4.8 -0.1,-8.55 -0.3,-11.25 v 0 L 79.85,-17 c -0.133,-0.833 -0.2,-1.567 -0.2,-2.2 v 0 c 0,-1.133 0.033,-2.167 0.1,-3.1 v 0 l 0.1,-3.1 c 0,-1.033 -0.067,-1.817 -0.2,-2.35 v 0 c -0.667,0.467 -2.683,7.483 -6.05,21.05 v 0 l -0.05,0.75 c -0.1,0.833 -0.233,1.5 -0.4,2 v 0 c -0.1,0.367 -0.24,0.65 -0.42,0.85 -0.187,0.2 -0.397,0.3 -0.63,0.3 v 0 c -0.533,0 -0.917,-0.133 -1.15,-0.4 -0.233,-0.267 -0.35,-0.683 -0.35,-1.25 v 0 c 0,-0.9 -0.423,-3.233 -1.27,-7 -0.853,-3.767 -1.77,-7.383 -2.75,-10.85 -0.987,-3.467 -1.663,-5.383 -2.03,-5.75 v 0 c -0.033,1.167 -0.167,3.917 -0.4,8.25 v 0 c -0.467,7.667 -0.7,13.7 -0.7,18.1 v 0 l 0.05,2 c -0.133,0.433 -0.483,0.65 -1.05,0.65 v 0 c -0.1,0 -0.267,-0.09 -0.5,-0.27 C 61.717,0.493 61.6,0.35 61.6,0.25 v 0 c 0,-3 0.267,-8.267 0.8,-15.8 v 0 c 0.5,-7 0.75,-12.25 0.75,-15.75 v 0 c 0,-0.167 -0.033,-0.333 -0.1,-0.5 v 0 c -0.1,-0.2 -0.15,-0.35 -0.15,-0.45 v 0 c 0,-0.5 0.433,-0.75 1.3,-0.75 v 0 c 0.567,0 0.9,0.25 1,0.75 v 0 c 0.133,0.667 0.2,1.167 0.2,1.5 v 0 l 0.05,0.6 c 0.167,0.867 0.65,2.2 1.45,4 v 0 c 0.633,1.433 1.117,2.683 1.45,3.75 v 0 c 0.2,0.8 0.383,1.45 0.55,1.95 v 0 c 0.533,1.933 0.883,3.367 1.05,4.3 v 0 l 0.65,1.3 c 0.1,0.5 0.3,1.317 0.6,2.45 v 0 c 0.3,1.267 0.517,2.3 0.65,3.1 0.133,0.8 0.2,1.567 0.2,2.3 v 0 c 0.367,-0.567 1.41,-3.977 3.13,-10.23 1.713,-6.247 2.72,-10.237 3.02,-11.97 v 0 c 0.033,-0.067 0.06,-0.16 0.08,-0.28 0.013,-0.113 0.037,-0.27 0.07,-0.47 v 0 c 0.067,-0.433 0.217,-1.083 0.45,-1.95 v 0 c 0.267,-0.667 0.667,-1 1.2,-1 v 0 c 0.233,0 0.5,0.1 0.8,0.3 0.3,0.2 0.45,0.4 0.45,0.6 v 0 c 0,13.9 0.217,21.25 0.65,22.05 v 0 2.6 c -0.033,0.767 -0.05,1.65 -0.05,2.65 v 0 c 0,2.133 0.117,3.733 0.35,4.8 v 0 c 0.033,0.033 0.06,0.083 0.08,0.15 0.013,0.067 0.037,0.15 0.07,0.25 v 0 c 0.033,0.133 0.05,0.283 0.05,0.45 v 0 c 0,0.367 -0.107,0.733 -0.32,1.1 C 81.86,2.417 81.6,2.6 81.3,2.6 Z m -1.65,-30.55 v -0.1 H 79.6 L 79.5,-28 Z m 20.1,28.4 c -0.5,0 -0.817,-0.057 -0.95,-0.17 -0.133,-0.12 -0.233,-0.43 -0.3,-0.93 v 0 C 98.2,-3.083 98.017,-4.6 97.95,-5.2 v 0 l -0.25,-2 c -0.733,-0.167 -1.567,-0.25 -2.5,-0.25 v 0 l -1.8,-0.1 C 92.6,-7.65 92.017,-7.7 91.65,-7.7 v 0 c -0.2,0 -0.317,0.083 -0.35,0.25 v 0 c 0,0.1 -0.017,0.15 -0.05,0.15 v 0 l -0.1,1 c -0.033,0.6 -0.217,1.8 -0.55,3.6 v 0 c -0.167,0.9 -0.367,1.6 -0.6,2.1 v 0 c -0.267,0.567 -0.517,0.85 -0.75,0.85 v 0 c -0.2,0 -0.417,-0.093 -0.65,-0.28 -0.233,-0.18 -0.35,-0.37 -0.35,-0.57 v 0 l 0.05,-0.15 0.05,-0.15 c 0.6,-2.367 1.1,-4.717 1.5,-7.05 v 0 l 0.6,-3.1 0.6,-3.8 c 0,0 0.183,-1.1 0.55,-3.3 v 0 c 0.167,-0.9 0.467,-2.35 0.9,-4.35 v 0 c 0.467,-2.267 0.75,-3.817 0.85,-4.65 v 0 c 0.033,-0.1 0.1,-0.717 0.2,-1.85 v 0 c 0.133,-1.267 0.25,-2.2 0.35,-2.8 v 0 c 0.1,-0.867 0.2,-1.367 0.3,-1.5 v 0 h 0.35 c 0.1,0.033 0.217,0.05 0.35,0.05 v 0 c 0.4,0 0.7,-0.1 0.9,-0.3 v 0 c 0.233,0 0.443,0.073 0.63,0.22 0.18,0.153 0.27,0.33 0.27,0.53 v 0 c 0,1.6 0.117,3.433 0.35,5.5 v 0 c 0.133,1.067 0.233,1.95 0.3,2.65 v 0 c 0.367,4.3 1.3,12.367 2.8,24.2 v 0 0.15 c 0,0.333 -0.133,0.583 -0.4,0.75 z m -2.8,-9 h 0.5 c -0.333,-4.8 -0.967,-11.883 -1.9,-21.25 v 0 l -2.7,13.35 c -0.767,3.833 -1.15,6.25 -1.15,7.25 v 0 c 0,0.167 0.633,0.317 1.9,0.45 1.267,0.133 2.383,0.2 3.35,0.2 z m 9.5,9.2 c -0.467,0 -0.75,-0.383 -0.85,-1.15 v 0 c 0.067,-0.2 0.1,-0.75 0.1,-1.65 v 0 c 0,-3.067 0.05,-7.617 0.15,-13.65 v 0 c 0.1,-6 0.15,-10.333 0.15,-13 v 0 l 0.1,-1.8 0.15,-1.5 c 0,-0.233 0.117,-0.35 0.35,-0.35 v 0 c 0.167,0 0.4,0.05 0.7,0.15 v 0 l 0.15,0.05 c 0,0.733 -0.017,1.4 -0.05,2 v 0 1.95 5.45 c 0.033,1.6 0.05,3.417 0.05,5.45 v 0 c -0.033,0.167 -0.05,0.533 -0.05,1.1 v 0 l -0.05,1.05 c -0.033,0.667 -0.05,1.35 -0.05,2.05 v 0 c 0,0.767 0.017,1.467 0.05,2.1 v 0 l 0.05,2.15 -0.15,0.4 0.05,-0.05 c 0,0.1 -0.017,0.167 -0.05,0.2 v 0 0.2 c 0,0.267 0.05,0.5 0.15,0.7 v 0 l -0.15,4.8 v 0.3 c 0,0.567 0.017,0.9 0.05,1 v 0 c 0,0.167 0.083,0.25 0.25,0.25 v 0 l 2.6,0.1 c 0.767,0 1.293,0.007 1.58,0.02 0.28,0.02 0.453,0.03 0.52,0.03 v 0 h 0.15 c 0.167,0 0.333,0.09 0.5,0.27 0.167,0.187 0.25,0.38 0.25,0.58 v 0 c 0,0.4 -0.267,0.617 -0.8,0.65 v 0 C 111.783,0.467 110.4,0.45 108.2,0.45 v 0 l 0.1,0.05 c -0.333,0 -0.65,0.017 -0.95,0.05 v 0 c -0.267,0.067 -0.567,0.1 -0.9,0.1 z m 14.85,0.1 c -0.1,0 -0.233,-0.067 -0.4,-0.2 -0.167,-0.133 -0.267,-0.25 -0.3,-0.35 v 0 c 0.3,-0.8 0.45,-3.717 0.45,-8.75 v 0 c 0,-0.967 -0.05,-2.35 -0.15,-4.15 v 0 l -0.25,-3.55 -0.3,-0.65 0.15,-0.6 c -0.2,-0.467 -0.5,-1.25 -0.9,-2.35 -0.4,-1.1 -0.8,-2.217 -1.2,-3.35 v 0 c -1.2,-3.167 -1.983,-5.45 -2.35,-6.85 v 0 c -0.2,-0.667 -0.35,-1.283 -0.45,-1.85 v 0 l 0.7,-0.55 c 0.333,0.067 0.817,1.133 1.45,3.2 v 0 c 0.5,1.467 0.95,2.917 1.35,4.35 v 0 l 0.6,1.9 c 0.6,2.067 1.033,3.133 1.3,3.2 v 0 l 0.2,-0.9 -0.1,-0.25 c 0.267,-0.333 0.6,-1.517 1,-3.55 v 0 c 0.433,-2.333 0.85,-4.3 1.25,-5.9 v 0 c 0.433,-1.867 0.867,-2.8 1.3,-2.8 v 0 c 0.167,0 0.317,0.05 0.45,0.15 0.133,0.1 0.2,0.217 0.2,0.35 v 0 c 0,0.5 -0.5,2.467 -1.5,5.9 v 0 c -0.5,1.633 -0.917,3.167 -1.25,4.6 v 0 c -0.4,1.7 -0.6,3.217 -0.6,4.55 v 0 c 0.167,0.333 0.25,0.617 0.25,0.85 v 0 c 0,0.167 -0.05,0.4 -0.15,0.7 v 0 c -0.1,0.3 -0.15,0.55 -0.15,0.75 v 0 c 0,0.167 0.067,0.917 0.2,2.25 v 0 c 0.133,0.9 0.2,1.667 0.2,2.3 v 0 c 0,1.467 0.017,2.783 0.05,3.95 v 0 4 0.2 c 0,2.267 -0.35,3.4 -1.05,3.4 z"
                                   fill="#ffffff"
                                   fill-rule="nonzero"
                                   stroke="none"
                                   stroke-width="1"
                                   stroke-linecap="butt"
                                   stroke-linejoin="miter"
                                   stroke-miterlimit="10"
                                   stroke-dasharray="none"
                                   stroke-dashoffset="0"
                                   font-family="none"
                                   font-weight="none"
                                   font-size="none"
                                   text-anchor="none"
                                   style="mix-blend-mode:normal"
                                   data-fill-palette-color="primary"
                                   opacity="1"
                                   id="path2" />
                                <path
                                   transform="translate(39.75,43.1)"
                                   d="M 7.55,0.65 C 6.917,0.65 6.6,0.283 6.6,-0.45 v 0 -0.6 c 0.033,-0.133 0.05,-0.3 0.05,-0.5 v 0 -0.25 L 5.75,-7.85 C 5.517,-9.117 5.367,-10.033 5.3,-10.6 v 0 C 5,-12.933 4.683,-15.533 4.35,-18.4 v 0 c -0.267,-2.267 -0.733,-6 -1.4,-11.2 v 0 L 2.8,-30.75 c -0.5,-3.767 -0.867,-5.833 -1.1,-6.2 v 0 c 0.1,-0.167 0.25,-0.317 0.45,-0.45 0.2,-0.133 0.4,-0.2 0.6,-0.2 v 0 c 0.5,0 0.843,0.083 1.03,0.25 0.18,0.167 0.27,0.467 0.27,0.9 v 0 0.45 0.5 0.55 c 1.033,10.9 2.117,21.1 3.25,30.6 v 0 H 7.4 C 7.5,-5.317 7.7,-7.967 8,-12.3 v 0 l 0.1,-1.45 c 0.233,-4.233 0.367,-6.467 0.4,-6.7 v 0 c 0.1,-1 0.3,-2.467 0.6,-4.4 v 0 l 0.6,-4.05 0.15,-2.3 c 0.033,-0.4 0.06,-0.743 0.08,-1.03 0.013,-0.28 0.037,-0.487 0.07,-0.62 v 0 l 0.05,-0.65 c 0,-0.033 0.027,-0.083 0.08,-0.15 0.047,-0.067 0.12,-0.133 0.22,-0.2 v 0 c 0.467,0 0.767,0.117 0.9,0.35 v 0 c 0.1,0.1 0.167,0.207 0.2,0.32 0.033,0.12 0.05,0.263 0.05,0.43 v 0 c 0.067,0.3 0.1,0.45 0.1,0.45 v 0 c 0.333,1.767 1.05,6.367 2.15,13.8 1.1,7.433 1.767,12.333 2,14.7 v 0 l 0.15,0.1 1.85,-20.25 c 0.067,-1.267 0.283,-3.267 0.65,-6 v 0 c 0.333,-2.767 0.5,-5.017 0.5,-6.75 v 0 l -0.05,-0.5 v -0.45 c 0,-0.433 0.1,-0.743 0.3,-0.93 0.2,-0.18 0.533,-0.27 1,-0.27 v 0 c 0.2,0 0.41,0.083 0.63,0.25 0.213,0.167 0.32,0.35 0.32,0.55 v 0 c 0,0.333 -0.183,0.65 -0.55,0.95 v 0 c 0.033,0.033 0.05,0.133 0.05,0.3 v 0 c 0,0.2 -0.023,0.407 -0.07,0.62 -0.053,0.22 -0.097,0.38 -0.13,0.48 v 0 c -0.367,3 -0.817,7.417 -1.35,13.25 v 0 l -1,10.35 -0.4,3.95 -0.6,5.05 -0.25,2.55 c 0,0.4 -0.057,0.7 -0.17,0.9 -0.12,0.2 -0.363,0.3 -0.73,0.3 v 0 c -0.533,0 -0.85,-0.2 -0.95,-0.6 v 0 c -0.067,-0.2 -0.133,-0.667 -0.2,-1.4 v 0 L 14.7,-2.1 c -0.8,-5.133 -2,-14.267 -3.6,-27.4 v 0 l -0.15,-0.1 -0.05,0.05 v 0.05 L 8.4,-2.2 v 0.9 C 8.4,0 8.117,0.65 7.55,0.65 Z m 24.3,0.3 C 27.95,0.95 26,-5.183 26,-17.45 v 0 -1.75 c 0,-9.3 1.2,-13.95 3.6,-13.95 v 0 c 0.167,0 0.4,0.05 0.7,0.15 v 0 c 1.067,0.367 2.117,0.6 3.15,0.7 v 0 c 0.633,0.133 1.267,0.783 1.9,1.95 v 0 c 0.7,1.2 1.223,2.783 1.57,4.75 0.353,1.967 0.53,3.983 0.53,6.05 v 0 l -0.1,0.25 c 0,1.1 0.017,2.083 0.05,2.95 v 0 l 0.05,3 c 0,1.7 -0.067,3.233 -0.2,4.6 v 0 c -0.2,2.067 -0.533,3.85 -1,5.35 v 0 c -0.3,0.9 -0.64,1.65 -1.02,2.25 -0.387,0.6 -0.863,1.1 -1.43,1.5 v 0 c -0.533,0.4 -1.183,0.6 -1.95,0.6 z m -0.2,-1.45 c 1.3,0 2.267,-0.917 2.9,-2.75 v 0 c 0.633,-1.867 1.017,-3.767 1.15,-5.7 v 0 c 0.133,-2 0.2,-3.6 0.2,-4.8 v 0 c 0,-1.333 -0.1,-3.3 -0.3,-5.9 v 0 c -0.167,-2.9 -0.25,-4.867 -0.25,-5.9 v 0 l -0.2,-0.4 0.1,-0.25 c 0,-1.467 -0.407,-2.733 -1.22,-3.8 -0.82,-1.067 -1.813,-1.6 -2.98,-1.6 v 0 c -1.533,0 -2.45,0.733 -2.75,2.2 v 0 c -0.067,0.5 -0.133,1.217 -0.2,2.15 v 0 c 0,2.467 -0.1,4.15 -0.3,5.05 v 0 c 0,0.5 -0.05,1.283 -0.15,2.35 v 0 l -0.1,2.35 c 0,0.733 0.017,1.383 0.05,1.95 v 0 l 0.05,2 c 0,1.567 0.133,3.367 0.4,5.4 v 0 c 0.2,1.5 0.433,2.767 0.7,3.8 0.267,1.033 0.65,1.917 1.15,2.65 v 0 c 0.5,0.8 1.083,1.2 1.75,1.2 z M 52.3,0.85 51.6,0.6 C 51.2,0.167 50.767,-0.983 50.3,-2.85 49.833,-4.717 49.4,-6.817 49,-9.15 v 0 c -0.267,-1.9 -0.65,-3.783 -1.15,-5.65 v 0 c -0.4,-1.667 -0.783,-2.5 -1.15,-2.5 v 0 h -0.15 c -0.733,0 -1.1,0.233 -1.1,0.7 v 0 c 0,2.4 0.133,6.05 0.4,10.95 v 0 c 0.133,3 0.283,4.75 0.45,5.25 v 0 L 45.9,0.45 H 45.2 L 44.8,0.05 C 44.267,-15.35 44,-25.85 44,-31.45 v 0 c 0,-0.367 0.027,-0.667 0.08,-0.9 0.047,-0.233 0.153,-0.45 0.32,-0.65 v 0 c 0.133,-0.233 0.367,-0.35 0.7,-0.35 v 0 c 1.7,0 3.067,0.417 4.1,1.25 1.033,0.833 1.55,2.033 1.55,3.6 v 0 3.65 c 0,0.633 -0.207,1.483 -0.62,2.55 -0.42,1.067 -0.88,2.05 -1.38,2.95 v 0 l -0.65,1.25 c 0.367,1.7 1.093,4.757 2.18,9.17 1.08,4.42 1.67,6.763 1.77,7.03 v 0 c 0.033,0.033 0.077,0.117 0.13,0.25 0.047,0.133 0.153,0.333 0.32,0.6 v 0 c 0.233,0.467 0.35,0.867 0.35,1.2 v 0 c 0,0.467 -0.183,0.7 -0.55,0.7 z m -6.6,-19.4 c 0.633,0 1.2,-0.317 1.7,-0.95 0.5,-0.633 0.9,-1.45 1.2,-2.45 v 0 c 0.533,-2.033 0.8,-3.65 0.8,-4.85 v 0 c 0,-0.767 -0.04,-1.4 -0.12,-1.9 -0.087,-0.5 -0.23,-1.033 -0.43,-1.6 v 0 c -0.4,-1.167 -1.35,-1.75 -2.85,-1.75 v 0 c -0.167,0 -0.3,0.14 -0.4,0.42 -0.1,0.287 -0.15,0.58 -0.15,0.88 v 0 c 0,2.233 0.033,4.25 0.1,6.05 v 0 c 0.033,1.8 0.05,3.817 0.05,6.05 v 0 z M 69.4,0.9 c -0.8,0 -1.75,-1.5 -2.85,-4.5 v 0 c -1.033,-2.767 -1.933,-5.767 -2.7,-9 -0.767,-3.233 -1.183,-5.5 -1.25,-6.8 v 0 l -0.15,-0.2 -0.75,1.6 c -0.367,0.7 -0.64,1.273 -0.82,1.72 -0.187,0.453 -0.363,1.013 -0.53,1.68 v 0 c -0.2,0.633 -0.3,1.283 -0.3,1.95 v 0 c 0,0.667 -0.033,1.267 -0.1,1.8 v 0 l -0.1,1.8 v 6.4 c 0,0.3 0.05,0.783 0.15,1.45 v 0 c 0.1,0.6 0.15,1.067 0.15,1.4 v 0 c 0,0.167 -0.083,0.31 -0.25,0.43 -0.167,0.113 -0.35,0.17 -0.55,0.17 v 0 C 58.917,0.8 58.627,0.733 58.48,0.6 58.327,0.467 58.25,0.183 58.25,-0.25 v 0 -9.4 c 0,-0.533 0.083,-1.583 0.25,-3.15 v 0 c 0.167,-1.567 0.25,-2.617 0.25,-3.15 v 0 c 0,-1.4 0.083,-3.017 0.25,-4.85 v 0 c 0.133,-1.867 0.2,-3.467 0.2,-4.8 v 0 -6.95 c 0.2,-0.367 0.517,-0.55 0.95,-0.55 v 0 c 0.267,0 0.493,0.09 0.68,0.27 0.18,0.187 0.27,0.413 0.27,0.68 v 0 c -0.267,0.6 -0.4,1.4 -0.4,2.4 v 0 l -0.1,5.25 c -0.067,1.6 -0.1,3.367 -0.1,5.3 v 0 c 0.333,-0.1 1.633,-2.4 3.9,-6.9 v 0 c 2.267,-4.467 3.517,-6.7 3.75,-6.7 v 0 c 0.867,0 1.3,0.283 1.3,0.85 v 0 c -2.133,3.167 -3.9,6.25 -5.3,9.25 v 0 l -0.05,1.6 c -0.033,0.467 -0.05,1 -0.05,1.6 v 0 c 0,1.467 0.567,4.217 1.7,8.25 1.133,4.033 2.1,6.833 2.9,8.4 v 0 c 0.367,0.5 0.583,0.783 0.65,0.85 v 0 c 0.333,0.467 0.577,0.857 0.73,1.17 0.147,0.32 0.22,0.647 0.22,0.98 v 0 C 70.25,0.383 70.167,0.567 70,0.7 69.833,0.833 69.633,0.9 69.4,0.9 Z M 75.5,0.6 C 75.133,0.533 74.783,0.393 74.45,0.18 74.117,-0.04 73.933,-0.3 73.9,-0.6 v 0 L 74.15,-1 c 0.133,0 0.433,0.05 0.9,0.15 v 0 c 0.367,0.133 0.667,0.2 0.9,0.2 v 0 c 0.733,0 1.383,-0.293 1.95,-0.88 0.567,-0.58 1,-1.337 1.3,-2.27 v 0 c 0.467,-1.733 0.7,-3.367 0.7,-4.9 v 0 c 0,-2.3 -0.7,-4.767 -2.1,-7.4 v 0 c -0.867,-1.533 -1.533,-2.75 -2,-3.65 -0.467,-0.9 -0.883,-1.933 -1.25,-3.1 v 0 c -0.433,-1.367 -0.65,-2.683 -0.65,-3.95 v 0 c 0,-1.2 0.3,-2.617 0.9,-4.25 v 0 c 0.3,-0.767 0.723,-1.393 1.27,-1.88 0.553,-0.48 1.147,-0.72 1.78,-0.72 v 0 c 0.433,0 0.86,0.15 1.28,0.45 0.413,0.3 0.62,0.617 0.62,0.95 v 0 c 0,0.267 -0.217,0.4 -0.65,0.4 v 0 c -0.133,0 -0.3,-0.05 -0.5,-0.15 v 0 c -0.2,-0.1 -0.383,-0.15 -0.55,-0.15 v 0 c -0.5,0 -0.95,0.2 -1.35,0.6 -0.4,0.4 -0.7,0.917 -0.9,1.55 v 0 c -0.4,1.233 -0.6,2.367 -0.6,3.4 v 0 c 0,0.633 0.083,1.283 0.25,1.95 v 0 c 0.033,0.2 0.067,0.367 0.1,0.5 0.033,0.133 0.05,0.233 0.05,0.3 v 0 l 0.3,1 0.25,0.9 0.4,0.9 c 0.1,0.233 0.21,0.44 0.33,0.62 0.113,0.187 0.22,0.363 0.32,0.53 v 0 l 0.6,1.05 c 0.133,0.2 0.417,0.673 0.85,1.42 0.433,0.753 0.833,1.547 1.2,2.38 v 0 c 0.333,0.7 0.583,1.357 0.75,1.97 0.167,0.62 0.317,1.363 0.45,2.23 v 0 c 0.1,0.833 0.15,1.75 0.15,2.75 v 0 c 0,1.6 -0.217,3.1 -0.65,4.5 v 0 c -0.6,1.667 -1.467,2.833 -2.6,3.5 v 0 c -0.633,0.4 -1.367,0.6 -2.2,0.6 v 0 z M 79.45,-32 h 0.05 c 0,-0.033 -0.017,-0.05 -0.05,-0.05 v 0 z"
                                   fill="#ffffff"
                                   fill-rule="nonzero"
                                   stroke="none"
                                   stroke-width="1"
                                   stroke-linecap="butt"
                                   stroke-linejoin="miter"
                                   stroke-miterlimit="10"
                                   stroke-dasharray="none"
                                   stroke-dashoffset="0"
                                   font-family="none"
                                   font-weight="none"
                                   font-size="none"
                                   text-anchor="none"
                                   style="mix-blend-mode:normal"
                                   data-fill-palette-color="primary"
                                   opacity="1"
                                   id="path3" />
                              </g>
                            </svg>
                          </g>
                        </svg>
                      </g>
                    </svg>
                  </g>
                </svg>
              </g>
              <g
                 id="g29">
                <svg
                   viewBox="0 0 267.18377 267.18377"
                   height="267.18378"
                   width="267.18378"
                   version="1.1"
                   id="svg29">
                  <g
                     id="g6">
                    <svg
                       version="1.1"
                       id="svg6"
                       width="100%"
                       height="100%" />
                  </g>
                  <g
                     id="icon-0">
                    <svg
                       viewBox="0 0 267.18377 267.18377"
                       height="267.18378"
                       width="267.18378"
                       version="1.1"
                       id="svg28">
                      <g
                         id="g7">
                        <rect
                           width="242.93932"
                           height="242.93932"
                           x="12.122227"
                           y="12.122227"
                           fill="#ffffff"
                           data-fill-palette-color="accent"
                           id="rect6" />
                        <rect
                           width="242.93932"
                           height="242.93932"
                           x="24.244453"
                           y="-3.5527137e-15"
                           fill="#ffffff"
                           opacity="0.5"
                           data-fill-palette-color="accent"
                           id="rect7" />
                      </g>
                      <g
                         transform="translate(34.634933,34.634933)"
                         id="g28">
                        <svg
                           viewBox="0 0 197.9139 197.9139"
                           height="197.91391"
                           width="197.91391"
                           version="1.1"
                           id="svg27">
                          <g
                             id="g27">
                            <svg
                               version="1.1"
                               x="0"
                               y="0"
                               viewBox="2.354 2.354 95.292 95.292"
                               enable-background="new 0 0 100 100"
                               xml:space="preserve"
                               height="197.91391"
                               width="197.91391"
                               class="icon-cg-0"
                               data-fill-palette-color="quaternary"
                               id="cg-0"><rect
                                 x="29.351999"
                                 y="38.348999"
                                 width="6.9980001"
                                 height="32.299"
                                 fill="#000000"
                                 data-fill-palette-color="quaternary"
                                 id="rect8" /><rect
                                 x="63.651001"
                                 y="29.351"
                                 width="6.9980001"
                                 height="32.299"
                                 fill="#000000"
                                 data-fill-palette-color="quaternary"
                                 id="rect9" /><rect
                                 x="29.351999"
                                 y="72.649002"
                                 width="50.296001"
                                 height="6.9980001"
                                 fill="#000000"
                                 data-fill-palette-color="quaternary"
                                 id="rect10" /><rect
                                 x="20.353001"
                                 y="81.648003"
                                 width="68.293999"
                                 height="6.9980001"
                                 fill="#000000"
                                 data-fill-palette-color="quaternary"
                                 id="rect11" /><rect
                                 x="11.354"
                                 y="90.647003"
                                 width="86.292"
                                 height="6.9980001"
                                 fill="#000000"
                                 data-fill-palette-color="quaternary"
                                 id="rect12" /><rect
                                 x="2.3540001"
                                 y="2.3540001"
                                 width="86.292"
                                 height="6.9980001"
                                 fill="#000000"
                                 data-fill-palette-color="quaternary"
                                 id="rect13" /><rect
                                 x="11.354"
                                 y="11.354"
                                 width="68.293999"
                                 height="6.9980001"
                                 fill="#000000"
                                 data-fill-palette-color="quaternary"
                                 id="rect14" /><rect
                                 x="20.353001"
                                 y="20.353001"
                                 width="50.296001"
                                 height="6.9980001"
                                 fill="#000000"
                                 data-fill-palette-color="quaternary"
                                 id="rect15" /><rect
                                 x="72.649002"
                                 y="20.351999"
                                 width="6.9980001"
                                 height="50.296001"
                                 fill="#000000"
                                 data-fill-palette-color="quaternary"
                                 id="rect16" /><rect
                                 x="81.648003"
                                 y="11.353"
                                 width="6.9980001"
                                 height="68.294998"
                                 fill="#000000"
                                 data-fill-palette-color="quaternary"
                                 id="rect17" /><rect
                                 x="90.647003"
                                 y="2.3540001"
                                 width="6.9980001"
                                 height="86.292"
                                 fill="#000000"
                                 data-fill-palette-color="quaternary"
                                 id="rect18" /><rect
                                 x="2.355"
                                 y="11.353"
                                 width="6.9980001"
                                 height="86.292999"
                                 fill="#000000"
                                 data-fill-palette-color="quaternary"
                                 id="rect19" /><rect
                                 x="11.354"
                                 y="20.351999"
                                 width="6.9980001"
                                 height="68.293999"
                                 fill="#000000"
                                 data-fill-palette-color="quaternary"
                                 id="rect20" /><rect
                                 x="20.353001"
                                 y="29.351"
                                 width="6.9980001"
                                 height="50.297001"
                                 fill="#000000"
                                 data-fill-palette-color="quaternary"
                                 id="rect21" /><rect
                                 x="38.349998"
                                 y="38.349998"
                                 width="14.304"
                                 height="6.9980001"
                                 fill="#000000"
                                 data-fill-palette-color="quaternary"
                                 id="rect22" /><rect
                                 x="38.349998"
                                 y="47.348"
                                 width="6.9980001"
                                 height="14.303"
                                 fill="#000000"
                                 data-fill-palette-color="quaternary"
                                 id="rect23" /><rect
                                 x="54.653999"
                                 y="38.349998"
                                 width="6.9980001"
                                 height="14.303"
                                 fill="#000000"
                                 data-fill-palette-color="quaternary"
                                 id="rect24" /><rect
                                 x="47.348999"
                                 y="54.652"
                                 width="14.304"
                                 height="6.9980001"
                                 fill="#000000"
                                 data-fill-palette-color="quaternary"
                                 id="rect25" /><rect
                                 x="38.349998"
                                 y="63.650002"
                                 width="32.299999"
                                 height="6.9980001"
                                 fill="#000000"
                                 data-fill-palette-color="quaternary"
                                 id="rect26" /><rect
                                 x="29.351999"
                                 y="29.351"
                                 width="32.299999"
                                 height="6.9980001"
                                 fill="#000000"
                                 data-fill-palette-color="quaternary"
                                 id="rect27" /></svg>
                          </g>
                        </svg>
                      </g>
                    </svg>
                  </g>
                </svg>
              </g>
            </svg>
          </g>
          <defs
             id="defs30" />
        </svg>
        <rect
           width="395.51999"
           height="162.88359"
           fill="none"
           stroke="none"
           visibility="hidden"
           id="rect31"
           x="0"
           y="0" />
      </g>
    </svg>
  </g>
</svg>
